<svg xmlns="http://www.w3.org/2000/svg" viewBox="0 0 819.84 184.84"><defs><style>.cls-1{fill:#f37317;}</style></defs><title>logo</title><g id="Layer_2" data-name="Layer 2"><g id="Layer_4" data-name="Layer 4"><path class="cls-1" d="M753,1.29h6.49V34.86H753Z"/><path class="cls-1" d="M764.07,1.29h8.2L783,24.16h.54V1.29h6.37V34.86h-8.19L771,12h-.54V34.86h-6.37Z"/><path class="cls-1" d="M794.6,1.29h6.48V14.94h.55L811.77,1.29h8.07l-.17.6L807.36,17.8v.55l12.31,15.91.17.6h-8.07L801.63,21.31h-.55V34.86H794.6Z"/><path class="cls-1" d="M17.59,1.5H56.3L74.16,183.35H46.82l-2.16-29H26.8l-2.17,29H0ZM28.42,133.64H43l-6-107.91H34.41Z"/><path class="cls-1" d="M201.3,183.35H175V22.23H156.37V1.5h63.87V22.23H201.3Z"/><path class="cls-1" d="M407.79,1.5V183.35H381.53V1.5Z"/><path class="cls-1" d="M438.35,44.43h-2.64l3.77,138.92h-23V1.5h30.86l20,129.39H470L466.28,1.5h23V183.35h-29Z"/><path class="cls-1" d="M498.3,1.5h53.32V22.23H524.55V71.44h27.07V92.17H524.55v70.44h27.07v20.74H498.3Z"/><path class="cls-1" d="M580.59,25.48l1.32,157.87H560V1.5h37.9l8.93,135.88L614.66,1.5h40.6V183.35H631.17l1.32-157.87h-2.64L619.26,183.35H593.82L583.22,25.48Z"/><path class="cls-1" d="M680.37,1.5h38.71l17.86,181.85H709.6l-2.16-29H689.58l-2.17,29H662.78ZM691.2,133.64h14.62l-6-107.91h-2.64Z"/><path class="cls-1" d="M263,0h-2.43c-20.85,0-33.3,11-33.3,31.72v121.4c0,20.73,11.64,31.72,33,31.72h2.44c20.84,0,33.29-11,33.29-31.72V31.72C296,11,284.36,0,263,0Zm6.63,164.11h-16V20.73h16Z"/><path class="cls-1" d="M122.59,1.5V164.11h-16V1.5H80.36V152.87c0,20.73,11.64,31.73,33,31.73h2.44c20.84,0,33.29-11,33.29-31.73V1.5Z"/><path class="cls-1" d="M372.87,58.49V31.72C372.87,11,361.77,0,340.39,0H338c-20.85,0-33.3,11-33.3,31.72v121.4c0,20.73,11.64,31.72,33,31.72h2.44c20.84,0,32.75-11,32.75-31.72V118.87H347v45.24H331.08v-4.06c0-.2,0-.41,0-.63V25.48c0-.23,0-.44,0-.65v-4.1H347v4.69h0V58.49Z"/></g></g></svg>